<?xml version="1.0" encoding="utf-8"?>
<!-- Generator: Adobe Illustrator 16.0.0, SVG Export Plug-In . SVG Version: 6.00 Build 0)  -->
<!DOCTYPE svg PUBLIC "-//W3C//DTD SVG 1.1//EN" "http://www.w3.org/Graphics/SVG/1.1/DTD/svg11.dtd">
<svg version="1.1" id="Layer_1" xmlns="http://www.w3.org/2000/svg" xmlns:xlink="http://www.w3.org/1999/xlink" x="0px" y="0px"
	 width="509.284px" height="125px" viewBox="0 0 509.284 125" enable-background="new 0 0 509.284 125" xml:space="preserve">
<g>
	<path fill="#F26C6E" d="M94.923,60.779L49.09,29.529c-0.64-0.434-1.465-0.481-2.148-0.121c-0.681,0.36-1.108,1.069-1.108,1.842
		v62.5c0,0.773,0.427,1.481,1.11,1.842c0.304,0.163,0.64,0.242,0.973,0.242c0.411,0,0.821-0.123,1.173-0.363l45.833-31.25
		c0.569-0.388,0.911-1.031,0.911-1.721S95.492,61.167,94.923,60.779z M50,89.806V35.194L90.052,62.5L50,89.806z"/>
	<path fill="#F26C6E" d="M62.5,0C28.038,0,0,28.038,0,62.5S28.038,125,62.5,125S125,96.962,125,62.5S96.962,0,62.5,0z M62.5,120.833
		c-32.165,0-58.333-26.168-58.333-58.333S30.335,4.167,62.5,4.167s58.333,26.169,58.333,58.333S94.665,120.833,62.5,120.833z"/>
</g>
<g>
	<path fill="#0D0F21" d="M192.663,81.64h-4.758l-8.354-27.726c-0.396-1.227-0.84-2.775-1.331-4.645s-0.746-2.992-0.765-3.37
		c-0.416,2.492-1.076,5.221-1.982,8.185l-8.1,27.556h-4.758l-11.017-41.404h5.098l6.542,25.573c0.906,3.587,1.567,6.835,1.982,9.742
		c0.51-3.455,1.265-6.834,2.266-10.139l7.42-25.177h5.098l7.788,25.403c0.906,2.927,1.671,6.23,2.294,9.912
		c0.358-2.681,1.038-5.947,2.039-9.799l6.514-25.517h5.098L192.663,81.64z"/>
	<path fill="#0D0F21" d="M210.221,81.64V40.236h4.814V81.64H210.221z"/>
	<path fill="#0D0F21" d="M259.442,60.542c0,6.835-1.855,12.06-5.564,15.675c-3.711,3.616-9.049,5.423-16.016,5.423h-11.47V40.236
		h12.688c6.438,0,11.441,1.784,15.01,5.353S259.442,54.141,259.442,60.542z M254.344,60.711c0-5.399-1.354-9.468-4.064-12.206
		c-2.709-2.737-6.735-4.106-12.078-4.106h-6.995v33.078h5.862c5.739,0,10.054-1.411,12.942-4.234
		C252.9,70.421,254.344,66.244,254.344,60.711z"/>
	<path fill="#0D0F21" d="M291.755,81.64h-23.081V40.236h23.081v4.276h-18.267v13.339h17.162v4.248h-17.162v15.236h18.267V81.64z"/>
	<path fill="#0D0F21" d="M336.87,60.881c0,6.627-1.676,11.838-5.027,15.633c-3.351,3.795-8.01,5.692-13.976,5.692
		c-6.099,0-10.804-1.864-14.118-5.593c-3.313-3.729-4.97-8.992-4.97-15.789c0-6.74,1.661-11.965,4.984-15.675
		s8.043-5.565,14.16-5.565c5.947,0,10.592,1.888,13.934,5.664C335.199,49.025,336.87,54.236,336.87,60.881z M303.876,60.881
		c0,5.607,1.194,9.86,3.583,12.758c2.388,2.898,5.857,4.347,10.407,4.347c4.588,0,8.053-1.444,10.394-4.333
		s3.512-7.146,3.512-12.772c0-5.569-1.166-9.794-3.498-12.673c-2.331-2.879-5.781-4.319-10.351-4.319
		c-4.588,0-8.076,1.449-10.464,4.347C305.071,51.135,303.876,55.35,303.876,60.881z"/>
	<path fill="#0D0F21" d="M376.008,81.64h-5.664L355.25,61.561l-4.333,3.852V81.64h-4.814V40.236h4.814v20.532l18.776-20.532h5.692
		l-16.652,17.983L376.008,81.64z"/>
	<path fill="#0D0F21" d="M386.515,64.421V81.64h-4.814V40.236h11.356c5.079,0,8.831,0.973,11.258,2.917
		c2.426,1.945,3.639,4.871,3.639,8.779c0,5.476-2.775,9.176-8.326,11.102l11.243,18.606h-5.692l-10.025-17.219H386.515z
		 M386.515,60.287h6.599c3.398,0,5.891-0.675,7.477-2.025c1.586-1.35,2.379-3.375,2.379-6.075c0-2.737-0.807-4.71-2.422-5.919
		c-1.613-1.208-4.205-1.813-7.773-1.813h-6.259V60.287z"/>
	<path fill="#0D0F21" d="M442.646,81.64h-28.462v-3.767l21.977-33.305h-21.297v-4.333h27.159v3.767l-21.977,33.276h22.6V81.64z"/>
	<path fill="#0D0F21" d="M461.196,60.938l11.045-20.702h5.211l-13.82,25.347V81.64h-4.871V65.809l-13.792-25.573h5.268
		L461.196,60.938z"/>
	<path fill="#0D0F21" d="M506.508,70.624c0,3.644-1.321,6.485-3.965,8.524s-6.23,3.059-10.762,3.059
		c-4.909,0-8.685-0.632-11.328-1.897v-4.645c1.699,0.718,3.55,1.284,5.551,1.699c2.001,0.416,3.983,0.623,5.947,0.623
		c3.21,0,5.626-0.609,7.25-1.827s2.436-2.912,2.436-5.083c0-1.435-0.288-2.61-0.863-3.526c-0.576-0.916-1.539-1.76-2.889-2.535
		c-1.351-0.774-3.403-1.652-6.16-2.634c-3.852-1.378-6.604-3.011-8.256-4.899c-1.651-1.888-2.478-4.352-2.478-7.392
		c0-3.19,1.199-5.73,3.597-7.618c2.397-1.888,5.569-2.832,9.516-2.832c4.116,0,7.901,0.755,11.356,2.266l-1.501,4.191
		c-3.417-1.435-6.74-2.152-9.969-2.152c-2.549,0-4.541,0.548-5.976,1.643c-1.435,1.095-2.152,2.615-2.152,4.56
		c0,1.435,0.265,2.61,0.793,3.526c0.528,0.916,1.421,1.756,2.677,2.521c1.255,0.765,3.176,1.61,5.763,2.535
		c4.343,1.548,7.33,3.21,8.964,4.984C505.692,65.488,506.508,67.792,506.508,70.624z M490.847,36.214
		c0.906-1.17,1.884-2.586,2.931-4.248c1.049-1.661,1.874-3.105,2.479-4.333h5.721v0.595c-0.831,1.228-2.067,2.738-3.71,4.531
		c-1.643,1.794-3.068,3.182-4.276,4.163h-3.144V36.214z"/>
</g>
<g>
</g>
<g>
</g>
<g>
</g>
<g>
</g>
<g>
</g>
<g>
</g>
</svg>
